
<svg viewBox="766.57 4870.18 56.246 56.246" width="56.246" height="56.246">
  <defs>
    <clipPath id="nH">
      <path d="M 766.570312 4870.179688 L 822.816406 4870.179688 L 822.816406 4926.425781 L 766.570312 4926.425781 Z M 766.570312 4870.179688"></path>
    </clipPath>
  </defs>
  <g clip-path="url(#nH)">
    <path fill="#FFF" d="M 775.007812 4870.179688 L 814.378906 4870.179688 C 814.933594 4870.179688 815.480469 4870.234375 816.023438 4870.34375 C 816.566406 4870.453125 817.097656 4870.613281 817.609375 4870.824219 C 818.121094 4871.035156 818.605469 4871.296875 819.066406 4871.601562 C 819.527344 4871.910156 819.953125 4872.261719 820.34375 4872.652344 C 820.738281 4873.042969 821.085938 4873.46875 821.394531 4873.929688 C 821.703125 4874.390625 821.960938 4874.878906 822.171875 4875.390625 C 822.386719 4875.902344 822.546875 4876.429688 822.652344 4876.972656 C 822.761719 4877.515625 822.816406 4878.0625 822.816406 4878.617188 L 822.816406 4917.988281 C 822.816406 4918.542969 822.761719 4919.089844 822.652344 4919.636719 C 822.546875 4920.179688 822.386719 4920.707031 822.171875 4921.21875 C 821.960938 4921.730469 821.703125 4922.214844 821.394531 4922.675781 C 821.085938 4923.136719 820.738281 4923.5625 820.34375 4923.953125 C 819.953125 4924.347656 819.527344 4924.695312 819.066406 4925.003906 C 818.605469 4925.3125 818.121094 4925.570312 817.609375 4925.785156 C 817.097656 4925.996094 816.566406 4926.15625 816.023438 4926.265625 C 815.480469 4926.371094 814.933594 4926.425781 814.378906 4926.425781 L 775.007812 4926.425781 C 774.453125 4926.425781 773.90625 4926.371094 773.363281 4926.265625 C 772.820312 4926.15625 772.292969 4925.996094 771.78125 4925.785156 C 771.265625 4925.570312 770.78125 4925.3125 770.320312 4925.003906 C 769.859375 4924.695312 769.433594 4924.347656 769.042969 4923.953125 C 768.652344 4923.5625 768.300781 4923.136719 767.992188 4922.675781 C 767.683594 4922.214844 767.425781 4921.730469 767.214844 4921.21875 C 767 4920.707031 766.839844 4920.179688 766.734375 4919.636719 C 766.625 4919.089844 766.570312 4918.542969 766.570312 4917.988281 L 766.570312 4878.617188 C 766.570312 4878.0625 766.625 4877.515625 766.734375 4876.972656 C 766.839844 4876.429688 767 4875.902344 767.214844 4875.390625 C 767.425781 4874.878906 767.683594 4874.390625 767.992188 4873.929688 C 768.300781 4873.46875 768.652344 4873.042969 769.042969 4872.652344 C 769.433594 4872.261719 769.859375 4871.910156 770.320312 4871.601562 C 770.78125 4871.296875 771.265625 4871.035156 771.78125 4870.824219 C 772.292969 4870.613281 772.820312 4870.453125 773.363281 4870.34375 C 773.90625 4870.234375 774.453125 4870.179688 775.007812 4870.179688 Z M 775.007812 4870.179688"></path>
  </g>
</svg>