<svg viewBox="1386.464 4833.245 60.742 60.742" width="60.742" height="60.742">
  <defs>
    <clipPath id="clip-1">
      <path d="M 659.195312 4867.726562 L 719.9375 4867.726562 L 719.9375 4928.46875 L 659.195312 4928.46875 Z M 659.195312 4867.726562"></path>
    </clipPath>
  </defs>
  <g clip-path="url(#clip-1)" transform="matrix(1, 0, 0, 1, 727.269165, -34.48188)">
    <path fill="#FFF" d="M 719.9375 4898.097656 C 719.9375 4914.878906 706.347656 4928.46875 689.566406 4928.46875 C 672.785156 4928.46875 659.195312 4914.878906 659.195312 4898.097656 C 659.195312 4881.316406 672.785156 4867.726562 689.566406 4867.726562 C 706.347656 4867.726562 719.9375 4881.316406 719.9375 4898.097656 Z M 684.007812 4914.117188 C 697.476562 4914.117188 704.84375 4902.957031 704.84375 4893.285156 C 704.84375 4892.964844 704.84375 4892.644531 704.828125 4892.34375 C 706.253906 4891.308594 707.5 4890.019531 708.488281 4888.546875 C 707.183594 4889.121094 705.769531 4889.519531 704.28125 4889.699219 C 705.800781 4888.789062 706.953125 4887.359375 707.5 4885.644531 C 706.089844 4886.480469 704.523438 4887.085938 702.855469 4887.421875 C 701.519531 4885.996094 699.621094 4885.113281 697.507812 4885.113281 C 693.46875 4885.113281 690.1875 4888.394531 690.1875 4892.433594 C 690.1875 4893.011719 690.25 4893.570312 690.386719 4894.105469 C 684.296875 4893.800781 678.90625 4890.882812 675.292969 4886.449219 C 674.667969 4887.527344 674.304688 4888.789062 674.304688 4890.125 C 674.304688 4892.660156 675.59375 4894.910156 677.570312 4896.214844 C 676.371094 4896.183594 675.246094 4895.851562 674.257812 4895.304688 C 674.257812 4895.332031 674.257812 4895.363281 674.257812 4895.394531 C 674.257812 4898.949219 676.78125 4901.894531 680.136719 4902.578125 C 679.527344 4902.746094 678.875 4902.835938 678.207031 4902.835938 C 677.738281 4902.835938 677.28125 4902.789062 676.824219 4902.699219 C 677.75 4905.613281 680.453125 4907.726562 683.660156 4907.785156 C 681.152344 4909.746094 677.996094 4910.914062 674.5625 4910.914062 C 673.96875 4910.914062 673.394531 4910.882812 672.816406 4910.808594 C 676.019531 4912.902344 679.878906 4914.117188 684.007812 4914.117188"></path>
  </g>
</svg>