<?xml version="1.0" standalone="no"?>
<!DOCTYPE svg PUBLIC "-//W3C//DTD SVG 20010904//EN"
 "http://www.w3.org/TR/2001/REC-SVG-20010904/DTD/svg10.dtd">
<svg version="1.0" xmlns="http://www.w3.org/2000/svg"
 width="260.000000pt" height="260.000000pt" viewBox="0 0 260.000000 260.000000"
 preserveAspectRatio="xMidYMid meet">
<metadata>
Created by potrace 1.14, written by Peter Selinger 2001-2017
</metadata>
<g transform="translate(0.000000,260.000000) scale(0.100000,-0.100000)"
fill="#000000" stroke="none">
<path d="M1521 2542 c-1 -7 -5 -11 -9 -8 -5 3 -16 -8 -26 -25 -9 -16 -21 -27
-26 -24 -5 3 -7 -3 -5 -13 2 -11 -7 -26 -21 -37 -13 -10 -24 -24 -24 -32 0 -7
-7 -16 -15 -19 -8 -4 -13 -10 -10 -14 2 -4 -6 -19 -19 -33 -13 -14 -21 -28
-18 -31 3 -3 -1 -6 -8 -6 -7 0 -10 -3 -7 -7 4 -3 0 -15 -10 -25 -15 -17 -15
-18 3 -19 10 0 14 -3 7 -5 -9 -4 -8 -14 2 -43 7 -22 10 -44 5 -52 -5 -7 -6
-17 -3 -23 3 -5 1 -6 -5 -2 -6 4 -19 22 -28 41 -14 30 -18 33 -31 20 -18 -19
-27 -66 -14 -75 6 -3 12 -18 13 -32 1 -15 6 -24 10 -22 4 3 8 0 8 -6 0 -6 7
-18 15 -27 8 -8 13 -19 10 -24 -4 -5 -1 -9 6 -9 7 0 9 -3 6 -7 -4 -3 -2 -11 3
-18 7 -8 5 -12 -5 -12 -8 0 -13 2 -11 5 5 5 -95 102 -105 102 -4 0 -13 -8 -20
-17 -10 -11 -10 -14 -1 -9 6 4 12 3 12 -2 0 -6 -7 -12 -15 -16 -8 -3 -15 -12
-15 -21 0 -8 -4 -15 -9 -15 -5 0 -7 -9 -4 -19 3 -13 -2 -21 -17 -26 -18 -6
-20 -9 -9 -16 12 -7 12 -9 0 -9 -8 0 -11 -3 -8 -7 4 -3 1 -13 -6 -21 -10 -13
-9 -14 1 -8 7 4 4 -7 -8 -26 -11 -18 -20 -40 -20 -50 0 -9 -5 -18 -11 -20 -5
-2 -11 -10 -12 -18 -2 -8 -6 -21 -10 -27 -5 -7 -5 -18 -2 -23 3 -6 0 -13 -8
-16 -8 -3 -13 -16 -11 -30 1 -13 -2 -24 -7 -24 -6 0 -7 -4 -4 -10 3 -5 2 -10
-4 -10 -5 0 -8 -12 -5 -26 3 -18 1 -23 -7 -18 -8 4 -9 3 -5 -5 4 -6 2 -19 -6
-28 -11 -14 -11 -16 2 -8 12 7 13 6 3 -6 -6 -8 -13 -25 -15 -39 -1 -14 -9 -30
-17 -36 -10 -8 -11 -13 -3 -18 7 -4 8 -15 3 -29 -4 -12 -6 -28 -4 -34 3 -7 1
-13 -4 -13 -5 0 -10 -17 -11 -37 -2 -21 -5 -39 -7 -42 -3 -2 0 -10 5 -16 7 -9
6 -16 -5 -25 -8 -7 -15 -22 -15 -34 0 -17 2 -18 10 -6 7 10 10 11 10 2 0 -7
-7 -15 -16 -19 -13 -5 -13 -7 -2 -14 7 -5 8 -9 2 -9 -6 0 -10 -16 -9 -35 0
-19 -3 -35 -7 -35 -4 0 -8 -5 -8 -11 0 -5 4 -8 8 -5 10 6 9 -25 -2 -42 -4 -6
-3 -12 3 -12 6 0 6 -11 1 -30 -6 -21 -5 -30 3 -30 8 0 8 -3 2 -8 -14 -10 -15
-42 -2 -42 7 0 7 -4 -1 -12 -15 -15 -16 -31 0 -22 7 5 8 3 3 -6 -13 -22 -14
-80 -1 -80 7 0 7 -3 1 -8 -13 -9 -16 -42 -4 -42 6 0 5 -8 -1 -19 -6 -12 -6
-22 -1 -25 11 -7 9 -25 -3 -45 -6 -9 -5 -12 1 -8 6 4 13 0 16 -7 3 -8 1 -17
-6 -20 -9 -3 -9 -5 0 -5 7 -1 10 -13 7 -34 -4 -24 -2 -28 5 -17 14 20 14 4 0
-22 -9 -16 -8 -19 2 -13 9 6 11 2 7 -13 -3 -12 -1 -23 6 -26 6 -3 5 -5 -3 -5
-10 -1 -7 -9 10 -28 13 -15 17 -22 8 -15 -15 11 -17 9 -15 -17 0 -16 5 -27 10
-24 5 3 6 0 4 -8 -3 -8 -1 -22 4 -33 7 -12 6 -22 -3 -30 -9 -8 -10 -8 -4 3 5
9 4 12 -3 7 -6 -3 -10 -15 -9 -26 1 -14 4 -16 14 -8 10 8 12 7 7 -6 -3 -9 -10
-16 -16 -16 -5 0 -7 -4 -3 -10 3 -5 13 -7 23 -4 13 5 14 4 4 -4 -15 -10 -15
-21 -1 -39 7 -7 6 -13 0 -17 -12 -8 -19 4 -16 27 2 9 0 15 -5 12 -7 -4 -6 -40
0 -40 1 0 3 -21 5 -47 2 -33 -1 -45 -9 -41 -6 4 -5 -1 3 -10 11 -14 11 -17 0
-17 -11 0 -11 -2 1 -10 12 -8 13 -12 2 -19 -11 -7 -11 -9 0 -14 25 -9 178 -4
172 5 -4 5 4 20 17 34 14 15 18 24 9 24 -7 0 -10 3 -7 7 4 3 2 12 -3 18 -8 9
-4 12 15 10 24 -3 52 25 42 43 -5 7 18 33 28 31 17 -3 26 8 11 14 -11 5 -15 3
-10 -5 4 -7 3 -8 -4 -4 -23 14 -12 28 16 22 15 -3 21 -3 14 0 -10 5 -10 9 0
22 10 12 10 14 1 8 -14 -8 -17 3 -7 28 3 9 10 13 15 10 5 -3 8 -2 7 3 -4 13
33 83 44 83 5 0 7 4 4 9 -3 5 1 12 10 15 9 4 14 9 11 12 -3 4 1 13 9 21 8 8
12 19 9 24 -4 5 -1 9 6 9 7 0 10 3 6 6 -3 4 1 13 9 21 8 8 12 19 9 24 -4 5 -1
9 5 9 6 0 8 5 5 10 -3 6 -3 10 2 10 4 0 16 14 25 31 10 17 12 27 5 23 -9 -6
-9 -4 0 8 7 8 9 19 5 23 -4 5 -1 5 6 1 11 -6 17 5 13 27 0 4 3 7 9 7 6 0 9 3
8 7 -1 5 3 18 10 29 6 12 8 24 5 28 -3 3 -2 6 3 6 5 0 10 10 11 22 1 11 7 24
14 28 6 4 8 13 5 19 -4 6 -3 11 3 11 5 0 8 9 6 20 -2 11 -1 19 3 16 4 -2 12 7
19 20 8 18 8 22 0 18 -8 -5 -7 -2 1 7 6 7 12 21 12 31 0 10 6 18 13 18 8 0 7
4 -3 10 -13 9 -7 14 12 11 12 -1 -5 33 -21 46 -11 8 -20 8 -28 1 -9 -7 -13 -7
-13 3 0 10 -3 10 -12 1 -8 -8 -15 -9 -25 -1 -10 9 -13 8 -13 -2 0 -10 -2 -11
-8 -2 -4 6 -26 13 -50 15 -23 2 -42 8 -42 13 0 6 5 10 10 10 6 0 15 7 20 15 5
8 10 11 10 5 0 -5 5 -2 11 8 11 19 43 24 36 5 -2 -7 -10 -12 -16 -10 -7 1 -10
-2 -6 -8 11 -18 36 10 30 31 -5 13 -1 19 10 19 9 0 14 4 11 9 -7 10 34 8 51
-2 6 -4 20 5 33 18 13 13 27 22 33 18 6 -3 7 -1 3 5 -3 6 -2 13 4 17 6 4 7 11
4 17 -4 6 -1 14 5 18 7 4 13 17 14 28 1 12 4 22 8 22 4 0 5 9 2 20 -3 11 -1
20 4 20 6 0 9 20 8 45 0 25 3 45 8 45 4 0 5 5 2 10 -4 6 -1 18 7 27 9 12 9 15
1 9 -16 -9 -17 6 -1 22 9 9 9 12 -1 12 -11 0 -11 3 -1 15 6 8 9 19 5 25 -3 5
0 10 7 10 8 0 9 3 3 8 -14 10 -14 52 -1 52 6 0 4 5 -4 10 -11 7 -11 10 -2 10
10 0 10 5 2 20 -6 11 -7 20 -2 20 4 0 8 9 8 19 0 11 -4 17 -8 15 -7 -5 -2 42
8 74 2 7 0 11 -5 8 -9 -6 -5 80 5 95 2 4 0 10 -6 14 -6 4 -8 11 -5 16 4 5 0 9
-7 9 -9 0 -9 3 2 10 9 6 11 10 3 10 -7 0 -10 7 -6 17 4 10 2 14 -4 10 -8 -5
-8 4 -3 28 4 19 4 33 0 30 -4 -2 -6 20 -5 50 1 30 -3 55 -8 55 -5 0 -7 9 -4
20 3 11 1 20 -4 20 -4 0 -5 7 -2 17 5 12 3 14 -8 8 -11 -7 -11 -5 1 10 14 17
13 18 -2 12 -10 -4 -18 -2 -18 5 0 7 -5 6 -15 -2 -12 -10 -15 -10 -15 1 0 11
-2 11 -10 -1 -7 -11 -12 -12 -21 -3 -8 8 -6 14 9 22 11 6 24 20 27 31 4 11 10
18 15 15 4 -3 10 2 14 10 3 8 2 15 -2 15 -5 0 -8 12 -8 28 -1 59 -4 73 -15 66
-7 -4 -7 1 1 16 7 12 8 20 2 16 -5 -3 -13 1 -16 10 -3 8 -2 12 4 9 6 -3 10 -1
10 4 0 6 -4 11 -9 11 -6 0 -8 9 -6 20 2 11 -1 20 -6 20 -6 0 -7 5 -4 10 3 6
-1 10 -9 10 -9 0 -16 6 -16 13 0 9 -3 8 -9 -2 -7 -11 -9 -11 -14 0 -4 11 -6
11 -6 1z m69 -1356 c-32 -31 -60 -37 -60 -14 0 5 4 7 9 4 5 -3 12 1 15 10 4 9
13 14 21 10 9 -3 15 0 15 9 0 8 8 15 18 15 13 0 8 -8 -18 -34z m-404 -991 c-3
-8 -1 -15 4 -15 5 0 6 -8 3 -17 -6 -15 -7 -14 -13 3 -7 19 -3 44 7 44 3 0 3
-7 -1 -15z m-200 -40 c-1 -8 -5 -17 -8 -21 -5 -4 -4 16 1 34 3 9 9 -1 7 -13z
m145 -81 c-23 -29 -29 -20 -6 10 8 10 12 24 8 30 -4 7 -1 6 7 -1 10 -9 8 -17
-9 -39z"/>
<path d="M1490 1120 c0 -5 5 -10 11 -10 5 0 7 5 4 10 -3 6 -8 10 -11 10 -2 0
-4 -4 -4 -10z"/>
<path d="M1570 1099 c0 -5 5 -7 10 -4 6 3 10 8 10 11 0 2 -4 4 -10 4 -5 0 -10
-5 -10 -11z"/>
<path d="M1567 1059 c7 -7 15 -10 18 -7 3 3 -2 9 -12 12 -14 6 -15 5 -6 -5z"/>
</g>
</svg>
